name C:\Users\u0101727\Documents\MyRepositories\upper-imu-dc\OpenSim\subject0\MA\ResultsMA\grid_4nodes_9dim\angles_9.mot
datacolumns 10
datarows 33
range 900.01000000 900.33000000
endheader 
time	clav_prot	clav_elev	scapula_abduction	scapula_elevation	scapula_upward_rot	scapula_winging	plane_elv	shoulder_elv	axial_rot	
        900.01000000	        -50.00000000	        -10.00000000	        -21.66666667	          3.33333333	         90.00000000	         10.00000000	        -30.00000000	         26.66666667	        -30.00000000	
        900.02000000	        -38.33333333	        -10.00000000	        -21.66666667	          3.33333333	         90.00000000	         10.00000000	        -30.00000000	         26.66666667	        -30.00000000	
        900.03000000	        -26.66666667	        -10.00000000	        -21.66666667	          3.33333333	         90.00000000	         10.00000000	        -30.00000000	         26.66666667	        -30.00000000	
        900.04000000	        -15.00000000	        -10.00000000	        -21.66666667	          3.33333333	         90.00000000	         10.00000000	        -30.00000000	         26.66666667	        -30.00000000	
        900.05000000	        -50.00000000	          0.00000000	        -21.66666667	          3.33333333	         90.00000000	         10.00000000	        -30.00000000	         26.66666667	        -30.00000000	
        900.06000000	        -38.33333333	          0.00000000	        -21.66666667	          3.33333333	         90.00000000	         10.00000000	        -30.00000000	         26.66666667	        -30.00000000	
        900.07000000	        -26.66666667	          0.00000000	        -21.66666667	          3.33333333	         90.00000000	         10.00000000	        -30.00000000	         26.66666667	        -30.00000000	
        900.08000000	        -15.00000000	          0.00000000	        -21.66666667	          3.33333333	         90.00000000	         10.00000000	        -30.00000000	         26.66666667	        -30.00000000	
        900.09000000	        -50.00000000	         10.00000000	        -21.66666667	          3.33333333	         90.00000000	         10.00000000	        -30.00000000	         26.66666667	        -30.00000000	
        900.10000000	        -38.33333333	         10.00000000	        -21.66666667	          3.33333333	         90.00000000	         10.00000000	        -30.00000000	         26.66666667	        -30.00000000	
        900.11000000	        -26.66666667	         10.00000000	        -21.66666667	          3.33333333	         90.00000000	         10.00000000	        -30.00000000	         26.66666667	        -30.00000000	
        900.12000000	        -15.00000000	         10.00000000	        -21.66666667	          3.33333333	         90.00000000	         10.00000000	        -30.00000000	         26.66666667	        -30.00000000	
        900.13000000	        -50.00000000	         20.00000000	        -21.66666667	          3.33333333	         90.00000000	         10.00000000	        -30.00000000	         26.66666667	        -30.00000000	
        900.14000000	        -38.33333333	         20.00000000	        -21.66666667	          3.33333333	         90.00000000	         10.00000000	        -30.00000000	         26.66666667	        -30.00000000	
        900.15000000	        -26.66666667	         20.00000000	        -21.66666667	          3.33333333	         90.00000000	         10.00000000	        -30.00000000	         26.66666667	        -30.00000000	
        900.16000000	        -15.00000000	         20.00000000	        -21.66666667	          3.33333333	         90.00000000	         10.00000000	        -30.00000000	         26.66666667	        -30.00000000	
        900.17000000	        -50.00000000	        -10.00000000	         -3.33333333	          3.33333333	         90.00000000	         10.00000000	        -30.00000000	         26.66666667	        -30.00000000	
        900.18000000	        -38.33333333	        -10.00000000	         -3.33333333	          3.33333333	         90.00000000	         10.00000000	        -30.00000000	         26.66666667	        -30.00000000	
        900.19000000	        -26.66666667	        -10.00000000	         -3.33333333	          3.33333333	         90.00000000	         10.00000000	        -30.00000000	         26.66666667	        -30.00000000	
        900.20000000	        -15.00000000	        -10.00000000	         -3.33333333	          3.33333333	         90.00000000	         10.00000000	        -30.00000000	         26.66666667	        -30.00000000	
        900.21000000	        -50.00000000	          0.00000000	         -3.33333333	          3.33333333	         90.00000000	         10.00000000	        -30.00000000	         26.66666667	        -30.00000000	
        900.22000000	        -38.33333333	          0.00000000	         -3.33333333	          3.33333333	         90.00000000	         10.00000000	        -30.00000000	         26.66666667	        -30.00000000	
        900.23000000	        -26.66666667	          0.00000000	         -3.33333333	          3.33333333	         90.00000000	         10.00000000	        -30.00000000	         26.66666667	        -30.00000000	
        900.24000000	        -15.00000000	          0.00000000	         -3.33333333	          3.33333333	         90.00000000	         10.00000000	        -30.00000000	         26.66666667	        -30.00000000	
        900.25000000	        -50.00000000	         10.00000000	         -3.33333333	          3.33333333	         90.00000000	         10.00000000	        -30.00000000	         26.66666667	        -30.00000000	
        900.26000000	        -38.33333333	         10.00000000	         -3.33333333	          3.33333333	         90.00000000	         10.00000000	        -30.00000000	         26.66666667	        -30.00000000	
        900.27000000	        -26.66666667	         10.00000000	         -3.33333333	          3.33333333	         90.00000000	         10.00000000	        -30.00000000	         26.66666667	        -30.00000000	
        900.28000000	        -15.00000000	         10.00000000	         -3.33333333	          3.33333333	         90.00000000	         10.00000000	        -30.00000000	         26.66666667	        -30.00000000	
        900.29000000	        -50.00000000	         20.00000000	         -3.33333333	          3.33333333	         90.00000000	         10.00000000	        -30.00000000	         26.66666667	        -30.00000000	
        900.30000000	        -38.33333333	         20.00000000	         -3.33333333	          3.33333333	         90.00000000	         10.00000000	        -30.00000000	         26.66666667	        -30.00000000	
        900.31000000	        -26.66666667	         20.00000000	         -3.33333333	          3.33333333	         90.00000000	         10.00000000	        -30.00000000	         26.66666667	        -30.00000000	
        900.32000000	        -15.00000000	         20.00000000	         -3.33333333	          3.33333333	         90.00000000	         10.00000000	        -30.00000000	         26.66666667	        -30.00000000	
        900.33000000	        -50.00000000	        -10.00000000	         15.00000000	          3.33333333	         90.00000000	         10.00000000	        -30.00000000	         26.66666667	        -30.00000000	
